<svg width="43" height="30" viewBox="0 0 43 30" fill="none" xmlns="http://www.w3.org/2000/svg">
<g clip-path="url(#clip0_1_130)">
<mask id="mask0_1_130" style="mask-type:luminance" maskUnits="userSpaceOnUse" x="0" y="0" width="43" height="30">
<path d="M0.0833778 30L43 30L43 3.8147e-06L0.0833805 6.2807e-08L0.0833778 30Z" fill="white"/>
</mask>
<g mask="url(#mask0_1_130)">
<path d="M12.2091 10.2755C13.2454 10.7125 14.2817 11.0432 15.2227 11.5629C18.808 13.559 20.7139 17.7046 20.0111 21.7676C19.3083 25.7834 16.1161 29.0196 12.1377 29.7873C6.15818 30.9566 1.19114 26.7991 0.297787 21.555C-0.190577 18.6968 0.238231 15.8621 1.0482 13.122C2.96593 6.6141 7.36123 2.46843 13.7576 0.295204C14.1031 0.177093 14.4723 0.0589824 14.8296 0.0235496C15.7587 -0.0591263 16.4615 0.330637 16.8784 1.1456C17.2953 1.96056 17.1762 2.74009 16.6044 3.46056C15.9731 4.2519 15.318 5.01961 14.7224 5.82276C13.6742 7.22827 12.8285 8.74008 12.2091 10.2755Z" fill="white"/>
<path d="M34.9479 10.2518C36.0557 10.7124 37.0681 11.0313 37.9734 11.5392C41.5706 13.5235 43.5598 17.6691 42.869 21.614C42.1305 25.8187 39.0097 29.0077 34.9003 29.8109C29.0399 30.9447 24.192 26.929 23.1557 21.8266C22.7507 19.8305 22.9413 17.8227 23.251 15.8384C23.7989 12.3542 25.0734 9.16519 27.3604 6.41322C29.9928 3.24787 33.3637 1.22818 37.2945 0.070703C38.164 -0.189139 39.0812 0.188814 39.5934 0.956529C40.1055 1.73606 40.046 2.65732 39.4504 3.42503C38.6047 4.51165 37.7114 5.56283 36.9609 6.7085C36.1986 7.85417 35.5911 9.09432 34.9479 10.2518Z" fill="white"/>
</g>
</g>
<defs>
<clipPath id="clip0_1_130">
<rect width="43" height="30" fill="white" transform="translate(43 30) rotate(-180)"/>
</clipPath>
</defs>
</svg>
