<svg width="29" height="29" viewBox="0 0 29 29" fill="none" xmlns="http://www.w3.org/2000/svg">
<path d="M15.7421 2.41799C16.6239 2.41461 17.5057 2.42347 18.3872 2.44457L18.6216 2.45303C18.8923 2.4627 19.1593 2.47478 19.482 2.48928C20.7676 2.5497 21.6449 2.7527 22.4146 3.05116C23.2121 3.35807 23.8839 3.77374 24.5557 4.44557C25.17 5.04927 25.6455 5.77951 25.949 6.58553C26.2474 7.35524 26.4504 8.2337 26.5108 9.51938C26.5253 9.84077 26.5374 10.109 26.5471 10.3797L26.5543 10.6141C26.5758 11.4952 26.5851 12.3766 26.5821 13.258L26.5833 14.1594V15.7423C26.5863 16.624 26.577 17.5058 26.5555 18.3874L26.5483 18.6218C26.5386 18.8924 26.5265 19.1595 26.512 19.4821C26.4516 20.7677 26.2462 21.645 25.949 22.4147C25.6465 23.2215 25.1709 23.9524 24.5557 24.5559C23.9515 25.1701 23.2209 25.6455 22.4146 25.9491C21.6449 26.2475 20.7676 26.4505 19.482 26.511C19.1593 26.5255 18.8923 26.5375 18.6216 26.5472L18.3872 26.5545C17.5057 26.5759 16.6239 26.5852 15.7421 26.5823L14.8407 26.5835H13.259C12.3772 26.5865 11.4955 26.5771 10.614 26.5556L10.3796 26.5484C10.0927 26.538 9.80594 26.5259 9.51924 26.5121C8.23357 26.4518 7.35632 26.2464 6.5854 25.9491C5.77906 25.6462 5.04869 25.1707 4.44545 24.5559C3.83046 23.9521 3.35459 23.2213 3.05103 22.4147C2.75257 21.645 2.54957 20.7677 2.48915 19.4821C2.4757 19.1953 2.46361 18.9085 2.4529 18.6218L2.44686 18.3874C2.42458 17.5058 2.41452 16.624 2.41665 15.7423V13.258C2.41328 12.3766 2.42215 11.4952 2.44324 10.6141L2.4517 10.3797C2.46136 10.109 2.47345 9.84077 2.48795 9.51938C2.54836 8.23249 2.75136 7.35645 3.04982 6.58553C3.35356 5.77912 3.83036 5.04907 4.44665 4.44678C5.04948 3.83144 5.7794 3.35514 6.5854 3.05116C7.35632 2.7527 8.23236 2.5497 9.51924 2.48928L10.3796 2.45303L10.614 2.44699C11.4951 2.42472 12.3765 2.41466 13.2578 2.41678L15.7421 2.41799ZM14.5 8.45964C13.6994 8.44835 12.9047 8.59624 12.1619 8.89472C11.419 9.19329 10.7428 9.63645 10.1727 10.1985C9.60269 10.7606 9.14998 11.4304 8.84095 12.1689C8.532 12.9075 8.37291 13.7002 8.37291 14.5007C8.37291 15.3013 8.532 16.0939 8.84095 16.8325C9.14998 17.5711 9.60269 18.2409 10.1727 18.8029C10.7428 19.365 11.419 19.8082 12.1619 20.1067C12.9047 20.4053 13.6994 20.5531 14.5 20.5418C16.1023 20.5418 17.6391 19.9052 18.7721 18.7722C19.9051 17.6392 20.5416 16.1025 20.5416 14.5001C20.5416 12.8978 19.9051 11.361 18.7721 10.228C17.6391 9.095 16.1023 8.45964 14.5 8.45964ZM14.5 10.8764C14.9815 10.8675 15.46 10.9546 15.9075 11.1327C16.3549 11.3109 16.7624 11.5764 17.1061 11.9138C17.4498 12.2511 17.7229 12.6536 17.9092 13.0977C18.0957 13.5417 18.1917 14.0185 18.1918 14.5001C18.1919 14.9818 18.096 15.4585 17.9097 15.9027C17.7234 16.3468 17.4506 16.7494 17.1069 17.0868C16.7634 17.4243 16.356 17.69 15.9085 17.8682C15.4612 18.0465 14.9827 18.1339 14.5012 18.1251C13.5398 18.1251 12.6178 17.7432 11.9379 17.0634C11.2581 16.3836 10.8762 15.4615 10.8762 14.5001C10.8762 13.5387 11.2581 12.6167 11.9379 11.9368C12.6178 11.2571 13.5398 10.8751 14.5012 10.8751L14.5 10.8764ZM20.8437 6.64716C20.4539 6.66276 20.0853 6.82859 19.815 7.10991C19.5447 7.39124 19.3937 7.76624 19.3937 8.15637C19.3937 8.54648 19.5447 8.9215 19.815 9.20285C20.0853 9.48412 20.4539 9.64996 20.8437 9.66561C21.2443 9.66561 21.6285 9.50644 21.9118 9.2232C22.195 8.93995 22.3541 8.55579 22.3541 8.15516C22.3541 7.75457 22.195 7.37039 21.9118 7.08713C21.6285 6.80387 21.2443 6.64474 20.8437 6.64474V6.64716Z" fill="white"/>
</svg>
