<svg width="32" height="33" viewBox="0 0 32 33" fill="none" xmlns="http://www.w3.org/2000/svg">
<path d="M29.9467 8.25C28.92 8.73125 27.8133 9.0475 26.6667 9.19875C27.84 8.47 28.7467 7.315 29.1733 5.92625C28.0667 6.61375 26.84 7.095 25.5467 7.37C24.4933 6.1875 23.0133 5.5 21.3333 5.5C18.2 5.5 15.64 8.14 15.64 11.3987C15.64 11.8663 15.6933 12.32 15.7867 12.7463C11.04 12.4988 6.81334 10.1475 4.00001 6.58625C3.50668 7.4525 3.22668 8.47 3.22668 9.5425C3.22668 11.5912 4.22668 13.4062 5.77334 14.4375C4.82668 14.4375 3.94668 14.1625 3.17334 13.75V13.7912C3.17334 16.6512 5.14668 19.0437 7.76001 19.58C6.92098 19.8168 6.04014 19.8497 5.18668 19.6763C5.54882 20.8484 6.25806 21.8741 7.2147 22.609C8.17134 23.344 9.32727 23.7513 10.52 23.7738C8.49818 25.4244 5.99201 26.3166 3.41334 26.3037C2.96001 26.3037 2.50668 26.2762 2.05334 26.2212C4.58668 27.8988 7.60001 28.875 10.8267 28.875C21.3333 28.875 27.1067 19.8825 27.1067 12.0862C27.1067 11.825 27.1067 11.5775 27.0933 11.3162C28.2133 10.4912 29.1733 9.44625 29.9467 8.25Z" fill="white"/>
</svg>
