<svg width="30" height="30" viewBox="0 0 30 30" fill="none" xmlns="http://www.w3.org/2000/svg">
<path d="M19.4875 17.9625C19.7478 19.0638 19.7555 20.2098 19.51 21.3145C19.2645 22.4193 18.7721 23.4541 18.0699 24.3416C17.3676 25.229 16.4737 25.946 15.4549 26.4389C14.4362 26.9317 13.3192 27.1877 12.1875 27.1875V21.1875M19.4875 17.9625C21.8749 16.2235 23.817 13.9444 25.1552 11.3114C26.4934 8.67833 27.1898 5.76609 27.1875 2.8125C24.2341 2.81037 21.3221 3.50686 18.6893 4.84509C16.0566 6.18331 13.7777 8.12532 12.0387 10.5125M19.4875 17.9625C17.3149 19.5516 14.8254 20.6518 12.1875 21.1875M12.1875 21.1875C12.0587 21.2138 11.9288 21.2388 11.7988 21.2625C10.6647 20.3633 9.63798 19.3365 8.73875 18.2025C8.76236 18.0722 8.78611 17.9422 8.8125 17.8125M12.0387 10.5125C10.9373 10.252 9.79122 10.2442 8.68633 10.4896C7.58145 10.735 6.54643 11.2272 5.65884 11.9295C4.77125 12.6318 4.05412 13.5258 3.56119 14.5447C3.06825 15.5635 2.81229 16.6807 2.8125 17.8125H8.8125M12.0387 10.5125C10.4499 12.6848 9.34844 15.1751 8.8125 17.8125M6.01375 20.8C5.19148 21.4115 4.55216 22.2362 4.16503 23.185C3.7779 24.1337 3.65772 25.1703 3.8175 26.1825C4.82978 26.3421 5.86645 26.2218 6.81522 25.8344C7.76399 25.4471 8.58869 24.8075 9.2 23.985M20.625 11.25C20.625 11.7473 20.4275 12.2242 20.0758 12.5758C19.7242 12.9275 19.2473 13.125 18.75 13.125C18.2527 13.125 17.7758 12.9275 17.4242 12.5758C17.0725 12.2242 16.875 11.7473 16.875 11.25C16.875 10.7527 17.0725 10.2758 17.4242 9.92418C17.7758 9.57255 18.2527 9.375 18.75 9.375C19.2473 9.375 19.7242 9.57255 20.0758 9.92418C20.4275 10.2758 20.625 10.7527 20.625 11.25Z" stroke="white" stroke-width="1.5" stroke-linecap="round" stroke-linejoin="round"/>
</svg>
