<svg width="60" height="60" viewBox="0 0 60 60" fill="none" xmlns="http://www.w3.org/2000/svg">
<g clip-path="url(#clip0_1_44)">
<path d="M36.1202 0C36.5893 0.366122 37.1024 0.688308 37.5275 1.09836C41.0017 4.55455 44.4613 8.02538 47.9502 11.4816C48.5365 12.0527 48.8151 12.6824 48.8004 13.5026C48.7711 15.8457 48.7857 18.1889 48.7857 20.576C47.5397 20.576 46.323 20.576 45.0476 20.576C45.0476 18.7308 45.0476 16.9002 45.0476 14.9963C44.7691 14.9963 44.5639 14.9963 44.3587 14.9963C42.1744 14.9963 39.9756 14.9963 37.7914 14.9963C35.3726 14.9817 33.7894 13.4147 33.7894 10.9983C33.7747 8.81621 33.7894 6.61948 33.7894 4.43739C33.7894 4.23236 33.7894 4.01269 33.7894 3.74908C33.5255 3.74908 33.3203 3.74908 33.1004 3.74908C24.085 3.74908 15.0843 3.74908 6.0689 3.74908C4.42707 3.74908 3.75275 4.42275 3.75275 6.06297C3.75275 22.0112 3.75275 37.9595 3.75275 53.9224C3.75275 55.5919 4.42707 56.2509 6.11288 56.2509C10.1002 56.2509 14.0875 56.2509 18.0748 56.2509C18.28 56.2509 18.4999 56.2509 18.7344 56.2509C18.7344 57.4957 18.7344 58.7113 18.7344 60C18.5439 60 18.3386 60 18.1334 60C14.0875 60 10.0415 59.9707 5.9956 60.0146C2.8732 60.0293 0.439775 57.9351 0.0732959 55.1086C0.0732959 55.05 0.0293184 55.0061 0 54.9475C0 38.311 0 21.6744 0 5.03783C0.0293184 4.94996 0.0732959 4.86209 0.0879551 4.75958C0.307843 3.36832 0.982165 2.22602 2.05228 1.30339C2.91718 0.556505 3.95798 0.234318 5.04276 0C15.4068 0 25.7562 0 36.1202 0Z" fill="white"/>
<path d="M48.7857 48.7235C47.4957 48.7235 46.3083 48.7235 45.0623 48.7235C45.0623 44.6668 45.0623 40.6102 45.0623 36.4364C44.8571 36.5975 44.7398 36.6708 44.6518 36.7586C43.9775 37.4176 43.3325 38.0913 42.6435 38.7357C41.7786 39.5558 40.7378 39.5411 39.873 38.721C39.4918 38.3549 39.1253 37.9888 38.7589 37.608C38.3924 37.2273 38.0406 36.8465 37.5568 36.3339C37.5568 40.5663 37.5568 44.6083 37.5568 48.6942C36.2815 48.6942 35.0647 48.6942 33.8041 48.6942C33.7894 48.5331 33.7747 48.3574 33.7747 48.1963C33.7747 42.8509 33.7747 37.4909 33.7747 32.1455C33.7747 31.9258 33.7747 31.7061 33.8187 31.5011C33.98 30.8128 34.3904 30.3149 35.0941 30.0952C35.8417 29.8609 36.4867 30.0659 37.0291 30.6078C38.2751 31.8379 39.5211 33.0828 40.7672 34.3276C40.9138 34.474 41.0457 34.6498 41.2363 34.8694C41.4268 34.6937 41.5588 34.5619 41.6907 34.4301C42.9074 33.2146 44.1241 31.999 45.3408 30.7835C46.1178 30.0073 46.88 29.7877 47.657 30.1538C48.5365 30.5492 48.8004 31.2961 48.8004 32.2187C48.7857 37.5348 48.8004 42.8362 48.8004 48.1523C48.7857 48.3281 48.7857 48.5038 48.7857 48.7235Z" fill="white"/>
<path d="M14.9963 30.022C16.301 30.022 17.5031 30.022 18.7344 30.022C18.7344 36.246 18.7344 42.4555 18.7344 48.6942C17.5177 48.6942 16.301 48.6942 15.011 48.6942C15.011 46.2338 15.011 43.7589 15.011 41.2692C13.7503 41.2692 12.5336 41.2692 11.2729 41.2692C11.2729 43.7296 11.2729 46.2045 11.2729 48.7088C9.99756 48.7088 8.78085 48.7088 7.53482 48.7088C7.53482 42.4848 7.53482 36.29 7.53482 30.0366C8.75153 30.0366 9.96824 30.0366 11.2583 30.0366C11.2583 32.497 11.2583 34.9719 11.2583 37.4616C12.5189 37.4616 13.7357 37.4616 14.9963 37.4616C14.9963 35.0012 14.9963 32.5262 14.9963 30.022Z" fill="white"/>
<path d="M24.4222 33.7418C23.1175 33.7418 21.9155 33.7418 20.6841 33.7418C20.6841 32.497 20.6841 31.2961 20.6841 30.0513C24.3929 30.0513 28.1016 30.0513 31.869 30.0513C31.869 31.2521 31.869 32.4677 31.869 33.7418C30.6523 33.7418 29.4356 33.7418 28.1749 33.7418C28.1749 38.7503 28.1749 43.7003 28.1749 48.6942C26.9142 48.6942 25.6975 48.6942 24.4222 48.6942C24.4222 43.7442 24.4222 38.7796 24.4222 33.7418Z" fill="white"/>
<path d="M50.6768 30.022C51.9375 30.022 53.1395 30.022 54.3856 30.022C54.3856 35.0012 54.3856 39.9512 54.3856 44.9597C56.2619 44.9597 58.109 44.9597 60 44.9597C60 46.2338 60 47.4494 60 48.7381C59.7655 48.7381 59.5456 48.7381 59.311 48.7381C57.0975 48.7381 54.8986 48.7381 52.6851 48.7381C51.4391 48.7381 50.6475 47.9766 50.6475 46.7464C50.6328 41.2839 50.6475 35.8213 50.6475 30.3588C50.6621 30.2563 50.6768 30.1684 50.6768 30.022Z" fill="white"/>
</g>
<defs>
<clipPath id="clip0_1_44">
<rect width="60" height="60" fill="white"/>
</clipPath>
</defs>
</svg>
