<svg width="55" height="55" viewBox="0 0 55 55" fill="none" xmlns="http://www.w3.org/2000/svg">
<g clip-path="url(#clip0_1_42)">
<path d="M27.8273 55C27.6091 55 27.3909 55 27.1895 55C27.0888 54.9664 27.0049 54.8993 26.9042 54.8825C19.6369 53.4223 12.3528 51.9622 5.08544 50.5188C4.68264 50.4348 4.56515 50.2838 4.53158 49.8978C4.14556 45.5676 3.74275 41.2374 3.35673 36.9072C2.87 31.5868 2.40006 26.2496 1.91334 20.9292C1.37626 15.0549 0.839182 9.18065 0.302106 3.28959C0.218187 2.41684 0.100702 1.52731 0 0.637778C0 0.436375 0 0.218187 0 0C18.3277 0 36.6723 0 55 0C55 0.218187 55 0.436375 55 0.637778C54.9664 0.721697 54.9161 0.805615 54.9161 0.889533C54.6643 3.6924 54.4126 6.47849 54.1608 9.28135C53.7916 13.4101 53.4223 17.5557 53.0531 21.6845C52.5999 26.6021 52.1468 31.5197 51.6936 36.4373C51.2908 40.9521 50.888 45.4501 50.4852 49.9649C50.4516 50.3006 50.3509 50.4516 49.9985 50.5188C43.7382 51.7608 37.4779 53.0027 31.2344 54.2615C30.0763 54.4797 28.9518 54.7482 27.8273 55ZM29.8078 45.148C30.0259 45.1312 30.177 45.1312 30.328 45.0976C33.9365 44.376 37.545 43.6375 41.1703 42.9493C41.7913 42.8319 41.9591 42.5633 42.0095 41.9927C42.4123 37.31 42.8486 32.6274 43.2682 27.928C43.3521 27.0384 43.4193 26.1657 43.5032 25.2258C40.4486 25.2258 37.4443 25.2258 34.4233 25.2258C34.4233 21.3824 34.4233 17.5725 34.4233 13.729C37.8303 13.729 41.1871 13.729 44.5606 13.729C44.6948 12.2017 44.8291 10.708 44.9634 9.21422C39.8611 9.21422 34.8596 9.21422 29.8245 9.21422C29.8245 16.0787 29.8245 22.9097 29.8245 29.791C32.7113 29.791 35.5645 29.791 38.4513 29.791C38.4513 29.9924 38.4681 30.1266 38.4513 30.2609C38.1996 33.047 37.9478 35.8163 37.6793 38.6024C37.6625 38.7534 37.4611 38.9716 37.3268 39.0052C36.303 39.2402 35.2624 39.4416 34.2218 39.643C32.7617 39.9451 31.2847 40.2304 29.8078 40.5325C29.8078 42.0598 29.8078 43.5703 29.8078 45.148ZM25.1755 45.1648C25.1755 33.1309 25.1755 21.1642 25.1755 9.19744C23.6482 9.19744 22.1544 9.19744 20.6103 9.19744C20.6103 19.3348 20.6103 29.4385 20.6103 39.5926C19.6369 39.408 18.7305 39.1898 17.8242 39.0555C17.4214 38.9884 17.3207 38.8038 17.2872 38.4178C17.1865 37.0919 17.0522 35.7492 16.9347 34.4065C15.3906 34.4065 13.8801 34.4065 12.336 34.4065C12.5877 37.1254 12.8227 39.794 13.0912 42.4626C13.108 42.6137 13.3598 42.8151 13.5444 42.8486C16.5319 43.4696 19.5362 44.0571 22.5404 44.6613C23.3964 44.8291 24.2691 44.9969 25.1755 45.1648Z" fill="white"/>
</g>
<defs>
<clipPath id="clip0_1_42">
<rect width="55" height="55" fill="white"/>
</clipPath>
</defs>
</svg>
