<svg width="97" height="51" viewBox="0 0 97 51" fill="none" xmlns="http://www.w3.org/2000/svg">
<g clip-path="url(#clip0_1_52)">
<path d="M-8.1379e-06 23.9985C0.47994 21.4245 1.33879 19.0272 2.85442 16.8822C5.43098 13.1727 8.91692 10.4978 12.7818 8.27708C19.2989 4.59277 26.3213 2.44779 33.6469 1.26174C47.1864 -0.933704 60.5745 -0.353299 73.7099 3.76001C79.6966 5.6274 85.3044 8.25185 90.0786 12.4156C93.5646 15.4438 96.1917 19.0272 96.8989 23.7462C96.9242 23.8471 96.9747 23.9228 97 23.9985C97 25.0079 97 26.0173 97 27.0267C96.4948 29.853 95.4338 32.4522 93.6909 34.7739C91.1648 38.1301 87.9062 40.6536 84.2687 42.7229C77.8273 46.4072 70.8555 48.5017 63.6057 49.7382C56.1034 51.0252 48.5505 51.328 40.9724 50.6972C31.0703 49.8392 21.5471 47.669 12.7818 42.7481C8.66431 40.4265 5.02681 37.5497 2.42499 33.5121C1.13671 31.5185 0.429419 29.3231 -0.0252686 27.0267C-8.1379e-06 26.0173 -8.1379e-06 25.0079 -8.1379e-06 23.9985ZM38.8505 28.238C38.5474 29.8278 38.2948 31.14 38.0422 32.4775C37.8401 33.5626 38.219 34.0168 39.3052 34.042C40.8713 34.0673 42.4628 34.042 44.0289 34.042C45.2161 34.042 45.4182 33.8402 45.6456 32.6794C46.4539 28.5156 47.2875 24.3266 48.0706 20.1628C48.1716 19.6076 48.3484 19.4057 48.9042 19.431C49.8135 19.4814 50.7229 19.431 51.6575 19.431C53.9815 19.431 54.1583 19.6581 53.7036 21.9545C52.9963 25.4874 52.3143 28.995 51.6828 32.528C51.607 32.9317 51.7838 33.4869 52.0364 33.7645C52.2638 33.9916 52.7943 33.9916 53.1732 34.0168C55.0172 34.0421 56.8612 34.0168 58.781 34.0168C58.4273 35.7833 58.0989 37.4235 57.7958 39.0638C57.5432 40.4013 57.8969 40.8303 59.2357 40.8303C60.6503 40.8303 62.0648 40.8303 63.5047 40.8303C65.0708 40.8303 65.2224 40.7041 65.5255 39.1143C65.8539 37.4235 66.1823 35.7328 66.5107 34.0168C68.2284 34.0168 69.8198 34.1178 71.4364 33.9916C72.9268 33.8906 74.4677 33.7392 75.9075 33.285C80.9344 31.7457 84.2435 26.6482 84.0919 20.9703C83.9909 17.5888 82.0458 14.8887 78.8378 13.8793C77.7263 13.526 76.5643 13.2736 75.4023 13.2484C71.588 13.1727 67.7737 13.2231 63.9341 13.1979C63.1763 13.1979 62.7721 13.526 62.6206 14.2578C62.3932 15.5195 62.1154 16.8065 61.8628 18.0683C61.206 15.1158 59.1094 13.9297 56.457 13.4503C55.295 13.2484 54.0825 13.2231 52.87 13.1979C51.7333 13.1474 50.6219 13.1979 49.4346 13.1979C49.7883 11.4062 50.1167 9.69024 50.4198 7.9995C50.6219 6.86392 50.2682 6.40969 49.1062 6.38445C47.5401 6.38445 45.9487 6.40969 44.3825 6.35922C43.4479 6.33399 42.9932 6.71251 42.8164 7.62097C42.387 9.96783 41.907 12.3147 41.4523 14.6615C41.1492 16.1756 40.8461 17.6898 40.543 19.2291C39.6083 16.2514 37.6633 14.4344 34.7583 13.6774C33.7984 13.425 32.7628 13.2484 31.7776 13.2231C28.0138 13.1727 24.2752 13.1979 20.5114 13.1727C19.6526 13.1727 19.2737 13.5764 19.1221 14.384C17.5307 22.6611 15.9141 30.9634 14.2974 39.2405C14.0953 40.3508 14.4742 40.805 15.6362 40.8303C17.1771 40.8303 18.718 40.8303 20.2841 40.8303C21.5219 40.8303 21.7239 40.6536 21.9766 39.4171C22.3302 37.6254 22.6838 35.859 23.0628 34.0168C24.8057 34.0168 26.4982 34.0421 28.1654 34.0168C32.3586 33.9411 35.8193 32.4018 38.32 28.9193C38.4211 28.7679 38.5474 28.6165 38.8505 28.238Z" fill="white"/>
<path d="M38.8505 28.238C38.5474 28.6165 38.4211 28.7679 38.3201 28.9193C35.8193 32.4018 32.3586 33.9411 28.1654 34.0168C26.4982 34.042 24.831 34.0168 23.0628 34.0168C22.7091 35.859 22.3302 37.6254 21.9766 39.4171C21.724 40.6536 21.5471 40.8303 20.2841 40.8303C18.7432 40.8303 17.2023 40.8303 15.6362 40.8303C14.4742 40.8303 14.0953 40.3508 14.2974 39.2405C15.9141 30.9634 17.5055 22.661 19.1221 14.384C19.2737 13.5764 19.6526 13.1727 20.5115 13.1727C24.2753 13.1979 28.0138 13.1727 31.7776 13.2231C32.7628 13.2484 33.7984 13.425 34.7583 13.6774C37.6633 14.4597 39.6083 16.2766 40.543 19.2291C40.8461 17.715 41.1492 16.2009 41.4523 14.6615C41.907 12.3147 42.3617 9.96782 42.8164 7.62096C42.9932 6.7125 43.4479 6.33398 44.3826 6.35921C45.9487 6.40968 47.5401 6.35921 49.1063 6.38445C50.2682 6.38445 50.6219 6.86391 50.4198 7.99949C50.0914 9.69024 49.763 11.4062 49.4346 13.1979C50.6219 13.1979 51.7586 13.1727 52.8701 13.1979C54.0573 13.2484 55.2698 13.2484 56.457 13.4503C59.1346 13.9045 61.2313 15.1158 61.8628 18.0683C62.1154 16.8065 62.3932 15.5195 62.6206 14.2578C62.7469 13.5007 63.1763 13.1979 63.9341 13.1979C67.7484 13.2231 71.5628 13.1727 75.4023 13.2484C76.5391 13.2736 77.7263 13.526 78.8378 13.8793C82.0458 14.8887 84.0161 17.5888 84.0919 20.9703C84.2435 26.6734 80.9091 31.7456 75.9076 33.285C74.493 33.714 72.9521 33.8654 71.4365 33.9916C69.8451 34.1177 68.2284 34.0168 66.5107 34.0168C66.1823 35.7328 65.8286 37.4235 65.5255 39.1143C65.2224 40.7041 65.0708 40.8303 63.5047 40.8303C62.0901 40.8303 60.6755 40.8303 59.2357 40.8303C57.8969 40.8303 57.5432 40.4013 57.7958 39.0638C58.099 37.4235 58.4273 35.7833 58.781 34.0168C56.8612 34.0168 55.0172 34.0168 53.1732 34.0168C52.769 34.0168 52.2385 34.0168 52.0365 33.7645C51.7839 33.4869 51.607 32.9065 51.6828 32.5279C52.3143 28.995 53.0216 25.4621 53.7036 21.9545C54.1583 19.6581 53.9815 19.431 51.6576 19.431C50.7482 19.431 49.8135 19.4562 48.9042 19.431C48.3484 19.4057 48.1716 19.6076 48.0706 20.1628C47.2875 24.3518 46.4539 28.5156 45.6456 32.6793C45.4182 33.8402 45.1909 34.042 44.0289 34.042C42.4628 34.042 40.8714 34.042 39.3052 34.042C38.219 34.042 37.8401 33.5878 38.0422 32.4775C38.2695 31.14 38.5474 29.8278 38.8505 28.238ZM58.7557 39.7704C60.5492 39.7704 62.2164 39.7956 63.8836 39.7452C64.0604 39.7452 64.3635 39.3919 64.4141 39.1647C64.7677 37.4992 65.1466 35.8337 65.374 34.1682C65.5003 33.2093 65.9044 32.9822 66.8391 32.9822C69.3398 32.9569 71.8406 33.0074 74.2909 32.6289C79.6208 31.7709 83.8898 26.1939 82.8794 19.759C82.5763 17.7907 81.4648 16.2009 79.6208 15.3934C78.4083 14.8634 77.0443 14.4344 75.7307 14.384C71.8911 14.2325 68.0263 14.283 64.1867 14.283C64.0099 14.283 63.8583 14.384 63.6815 14.4092C62.0648 22.8377 60.4229 31.241 58.7557 39.7704ZM15.3078 39.7704C17.1013 39.7704 18.7432 39.7956 20.3599 39.7452C20.5872 39.7452 20.9409 39.3162 20.9914 39.0386C21.2945 37.7011 21.5471 36.3132 21.7997 34.9505C22.1534 33.0074 22.1534 33.0074 24.0984 33.0074C24.9068 33.0074 25.7404 33.0579 26.5487 33.0074C28.2917 32.856 30.1104 32.856 31.8029 32.4018C36.375 31.2157 39.5831 26.5725 39.6083 21.5002C39.6083 17.8916 37.7138 15.4438 34.2279 14.6111C33.4448 14.4092 32.6112 14.3082 31.8029 14.3082C28.2664 14.2578 24.7299 14.283 21.1935 14.2325C20.4862 14.2325 20.2336 14.4344 20.1073 15.141C19.1474 20.2132 18.137 25.2855 17.1518 30.3577C16.5203 33.4364 15.9141 36.5151 15.3078 39.7704ZM43.9531 7.52002C42.3112 15.999 40.6693 24.4527 39.0021 32.9569C40.9219 32.9569 42.6648 32.9569 44.5089 32.9569C45.4688 28.0866 46.4034 23.2414 47.3633 18.3711C49.1315 18.3711 50.824 18.2954 52.5164 18.3963C54.6635 18.5225 55.2445 19.3048 54.8656 21.4245C54.5625 23.1405 54.2089 24.8313 53.8805 26.522C53.4763 28.6417 53.0721 30.7615 52.6427 32.9822C54.4362 32.9822 56.1034 33.0074 57.7706 32.9569C57.9727 32.9569 58.2758 32.6793 58.3263 32.5027C59.1599 28.238 60.044 23.9733 60.726 19.6833C61.1302 17.1598 59.8419 15.3681 57.3411 14.7625C55.8255 14.4092 54.2341 14.3335 52.668 14.2325C51.2281 14.1568 49.7883 14.2073 48.1969 14.2073C48.6263 11.9109 49.0557 9.74071 49.4599 7.49479C47.6159 7.52002 45.8477 7.52002 43.9531 7.52002Z" fill="white"/>
<path d="M66.4096 29.0707C66.7128 27.5062 66.9654 26.1939 67.218 24.8817C67.5969 22.9134 67.9758 20.9198 68.38 18.9515C68.4305 18.6991 68.7589 18.3206 68.9609 18.3206C70.8555 18.3459 72.75 18.2954 74.6193 18.5477C76.4885 18.7748 77.3727 19.8852 77.1958 21.7778C77.0695 23.1657 76.7159 24.5789 76.2107 25.8659C75.6044 27.4557 74.2909 28.4146 72.6237 28.6417C70.6534 28.9193 68.6073 28.9446 66.4096 29.0707ZM67.7484 27.8342C68.9862 27.8342 70.0977 27.9099 71.1839 27.809C74.1646 27.5314 75.4276 26.3706 76.0086 23.4181C76.1349 22.8377 76.1854 22.232 76.2107 21.6516C76.2359 20.3394 75.8318 19.7338 74.5182 19.5571C72.851 19.33 71.1586 19.33 69.4409 19.2291C68.8346 22.2068 68.2789 25.0079 67.7484 27.8342Z" fill="white"/>
<path d="M22.987 28.9194C23.669 25.3612 24.351 21.8788 25.0836 18.1693C27.2307 18.2954 29.4031 18.3207 31.525 18.5982C33.0659 18.8254 33.7479 19.8348 33.7479 21.4246C33.7479 22.2573 33.6721 23.1153 33.4953 23.9481C32.7628 27.2034 30.8682 28.768 27.5086 28.8941C26.0182 28.9698 24.5531 28.9194 22.987 28.9194ZM24.25 27.8343C25.4372 27.8343 26.5234 27.91 27.6096 27.809C30.6409 27.5314 31.8281 26.4463 32.4849 23.4686C32.5859 23.0144 32.6617 22.5349 32.7122 22.0807C32.8638 20.4152 32.2828 19.6329 30.6156 19.4562C29.2516 19.3048 27.8622 19.3301 26.4729 19.3301C26.2456 19.3301 25.8667 19.5824 25.8161 19.7843C25.2857 22.4592 24.7805 25.1341 24.25 27.8343Z" fill="white"/>
<path d="M67.7484 27.8342C68.3042 25.0079 68.8346 22.2068 69.4156 19.2291C71.1333 19.33 72.8258 19.33 74.493 19.5571C75.8065 19.7338 76.1854 20.3394 76.1854 21.6516C76.1854 22.2573 76.1096 22.8377 75.9833 23.4181C75.4023 26.3706 74.1393 27.5566 71.1586 27.809C70.0724 27.9099 68.9609 27.8342 67.7484 27.8342Z" fill="white"/>
<path d="M24.25 27.8342C24.7552 25.1341 25.2604 22.4592 25.8161 19.7842C25.8667 19.5824 26.2456 19.33 26.4729 19.33C27.8622 19.33 29.2516 19.33 30.6156 19.4562C32.2828 19.6328 32.8638 20.4151 32.7122 22.0806C32.6617 22.5601 32.6112 23.0143 32.4849 23.4686C31.8281 26.4463 30.6409 27.5314 27.6096 27.809C26.5487 27.9099 25.4372 27.8342 24.25 27.8342Z" fill="white"/>
</g>
<defs>
<clipPath id="clip0_1_52">
<rect width="97" height="51" fill="white"/>
</clipPath>
</defs>
</svg>
