<svg width="61" height="68" viewBox="0 0 61 68" fill="none" xmlns="http://www.w3.org/2000/svg">
<g clip-path="url(#clip0_1_59)">
<path d="M29.57 0C30.1842 0 30.7984 0 31.4126 0C35.2207 0.726042 37.6425 3.29375 39.45 6.48125C40.503 8.32292 41.3102 10.324 42.1526 12.2896C42.3807 12.8208 42.5737 12.8917 43.1002 12.8031C46.5047 12.1833 49.9267 11.9354 53.3488 12.75C58.7714 14.0427 61.3511 18.1865 60.07 23.5698C59.4031 26.35 58.0168 28.776 56.3672 31.0604C55.753 31.9104 55.0861 32.725 54.4543 33.5573C55.0686 34.301 55.6652 35.0094 56.2268 35.7354C58.2098 38.3208 59.9121 41.0656 60.6842 44.3062C61.86 49.2823 59.6664 53.1958 54.8404 54.7542C52.4011 55.551 49.8916 55.6573 47.3646 55.4448C45.7501 55.3031 44.1531 55.0552 42.5035 54.8427C42.4158 55.0552 42.3281 55.3031 42.2228 55.551C41.6437 56.9323 41.1523 58.3667 40.4854 59.6948C38.4848 63.5906 36.0631 67.0615 31.4126 68.0177C30.7984 68.0177 30.1842 68.0177 29.57 68.0177C27.4466 67.6104 25.639 66.5656 24.1298 65.025C22.5504 63.3958 21.322 61.5187 20.3744 59.4646C19.6724 57.9594 19.0582 56.3833 18.4089 54.825C17.2858 55.0021 16.1451 55.1969 15.0044 55.3385C12.1264 55.675 9.26592 55.6927 6.45809 54.8781C1.40401 53.4083 -0.912448 49.3531 0.333524 44.2C1.00038 41.4729 2.35165 39.0823 3.96615 36.8333C4.7734 35.7177 5.66839 34.6552 6.52829 33.5396C6.15976 33.0792 5.77368 32.6187 5.40516 32.1406C3.33439 29.4312 1.5444 26.5625 0.807345 23.1448C-0.140296 18.7177 1.68479 15.1052 5.82633 13.3875C8.86229 12.1125 12.0562 12.1125 15.2676 12.449C16.3732 12.5729 17.4613 12.75 18.4966 12.8917C19.1635 11.3333 19.7426 9.79271 20.4797 8.35833C22.4978 4.42708 24.9195 0.95625 29.57 0ZM19.3741 33.7167C19.4618 35.7708 19.5145 37.5771 19.6198 39.3656C19.6373 39.6844 19.8655 40.074 20.1287 40.251C23.2699 42.4823 26.5867 44.4302 30.0438 46.0948C30.2895 46.2187 30.6931 46.2187 30.9388 46.1125C34.4135 44.4479 37.6951 42.4823 40.8715 40.3042C41.24 40.0385 41.3804 39.7552 41.398 39.3302C41.6261 35.5052 41.6612 31.6802 41.2927 27.8552C41.2751 27.5719 41.0645 27.2354 40.8364 27.076C37.6951 24.8979 34.3784 22.9854 30.9213 21.3562C30.6931 21.25 30.3246 21.25 30.0789 21.3562C26.5867 22.9854 23.2699 24.9156 20.1111 27.0938C19.9006 27.2354 19.7075 27.5719 19.69 27.8198C19.5671 29.874 19.4794 31.9281 19.3741 33.7167ZM9.09043 36.4792C7.94975 38.126 6.70378 39.7552 5.66839 41.5083C4.98398 42.6771 4.47507 43.9698 4.14164 45.2802C3.40458 48.0958 4.52771 50.0083 7.26534 50.9292C7.49348 51 7.72161 51.0708 7.9673 51.124C9.75729 51.5844 11.5648 51.6021 13.3899 51.4427C14.7061 51.3187 16.0222 51.124 17.2682 50.9646C16.8119 48.0073 16.3732 45.174 15.917 42.3406C15.8994 42.1813 15.7766 42.0219 15.6537 41.9156C13.5128 40.1625 11.3893 38.3917 9.09043 36.4792ZM51.7518 36.4969C51.629 36.5677 51.5763 36.6031 51.5237 36.6385C49.488 38.3917 47.4523 40.1271 45.4167 41.8802C45.2412 42.0396 45.1008 42.3052 45.0657 42.5354C44.8024 44.2 44.5743 45.8646 44.3111 47.5115C44.118 48.6448 43.8724 49.7427 43.6618 50.8583C46.1011 51.5844 50.4356 51.7438 52.7697 51.2125C56.5778 50.3448 57.8588 48.025 56.6129 44.2708C55.6126 41.3135 53.7699 38.8698 51.7518 36.4969ZM22.3574 53.9219C23.1822 56.2771 24.1298 58.6323 25.6741 60.6688C26.3761 61.6073 27.236 62.4927 28.1661 63.1833C29.6928 64.3521 31.2898 64.299 32.8692 63.1833C33.4834 62.7406 34.0625 62.2094 34.5714 61.625C36.3614 59.5531 37.467 57.1094 38.3971 54.5771C38.4848 54.3115 38.5726 54.0458 38.6252 53.8865C35.9578 52.8594 33.3781 51.85 30.7809 50.8406C30.6405 50.7875 30.4299 50.7698 30.2895 50.8229C27.6572 51.85 25.0599 52.8594 22.3574 53.9219ZM22.4451 13.8125C23.8315 14.2729 25.1301 14.6625 26.3936 15.1406C27.6747 15.601 28.9207 16.15 30.1842 16.6281C30.3948 16.7167 30.6931 16.6812 30.9213 16.5927C31.9216 16.2208 32.9043 15.7781 33.9221 15.4062C35.4313 14.8573 36.9756 14.3437 38.4848 13.8302C38.0988 12.2365 36.6949 9.22604 35.4664 7.52604C34.8522 6.67604 34.1503 5.86146 33.3606 5.18854C31.4302 3.54167 29.5349 3.55937 27.6045 5.20625C24.9371 7.47292 23.6736 10.6073 22.4451 13.8125ZM17.3384 16.6812C16.0749 16.5396 14.7763 16.3448 13.4777 16.2563C11.4595 16.1146 9.44141 16.2031 7.51103 16.9469C5.10683 17.8677 4.14164 19.6562 4.65056 22.1885C5.00153 23.9771 5.77369 25.5885 6.73887 27.0938C7.52858 28.3156 8.42357 29.4844 9.21327 30.6C11.442 28.7937 13.5654 27.076 15.6713 25.3583C15.8292 25.2344 15.9696 25.0219 16.0047 24.8271C16.461 22.1708 16.8821 19.4792 17.3384 16.6812ZM43.6091 16.7521C43.5916 16.8406 43.574 16.8937 43.574 16.9292C44.0478 19.5677 44.5041 22.1885 44.9955 24.8094C45.0306 24.9865 45.1359 25.199 45.2587 25.3052C47.3997 27.0583 49.5582 28.7938 51.7343 30.5646C51.9449 30.3167 52.2081 29.9979 52.4713 29.6792C54.0683 27.5896 55.5248 25.4115 56.2092 22.8083C57.034 19.6562 55.9285 17.6375 52.8223 16.7344C49.7512 15.849 46.6626 16.2208 43.6091 16.7521ZM21.1816 50.0083C22.7435 49.4771 24.2 48.9813 25.7443 48.45C23.8666 47.3521 22.1117 46.3073 20.2164 45.2094C20.5674 46.8563 20.8657 48.3615 21.1816 50.0083ZM40.7662 45.1917C38.8534 46.325 37.0985 47.3521 35.2383 48.45C36.8352 48.9813 38.2918 49.4771 39.8186 49.9906C40.1344 48.3615 40.4328 46.8562 40.7662 45.1917ZM45.5044 36.7979C46.7504 35.6646 47.856 34.6552 49.0142 33.5927C47.8209 32.5479 46.7153 31.5562 45.5044 30.4937C45.5044 32.6365 45.5044 34.6021 45.5044 36.7979ZM11.986 33.5927C13.1618 34.6729 14.2674 35.6646 15.4782 36.7625C15.4782 34.6021 15.4782 32.6187 15.4782 30.4937C14.2849 31.5562 13.1793 32.5302 11.986 33.5927ZM21.2869 17.6198C20.971 19.125 20.6727 20.5594 20.3393 22.1354C22.1468 21.0906 23.8315 20.1167 25.6566 19.0542C24.1298 18.5583 22.7435 18.0979 21.2869 17.6198ZM35.3611 19.0542C37.1336 20.099 38.7656 21.0552 40.3801 22.0115C40.4328 22.0469 40.503 22.0292 40.6434 22.0469C40.3275 20.5771 40.0291 19.1427 39.7133 17.6198C38.2567 18.1156 36.8703 18.5583 35.3611 19.0542Z" fill="white"/>
<path d="M30.5 40.1448C27.1131 40.1448 24.4105 37.4177 24.4105 34C24.4105 30.5823 27.1306 27.8552 30.5175 27.8729C33.8869 27.8906 36.5544 30.5823 36.5719 33.9823C36.5895 37.4 33.9045 40.1448 30.5 40.1448Z" fill="white"/>
</g>
<defs>
<clipPath id="clip0_1_59">
<rect width="61" height="68" fill="white"/>
</clipPath>
</defs>
</svg>
