<svg width="60" height="59" viewBox="0 0 60 59" fill="none" xmlns="http://www.w3.org/2000/svg">
<g clip-path="url(#clip0_1_50)">
<path d="M0 57.4902C0 38.8301 0 20.1699 0 1.48621C0.263894 0.754898 0.767693 0.259496 1.5114 0C20.4878 0 39.4642 0 58.4646 0C59.2083 0.259496 59.7361 0.754898 59.976 1.48621C59.976 20.1463 59.976 38.8065 59.976 57.4902C59.7121 58.2451 59.2083 58.7405 58.4646 58.9764C39.4882 58.9764 20.5118 58.9764 1.5114 58.9764C0.767693 58.7405 0.263894 58.2451 0 57.4902ZM16.9612 20.0048C16.0736 20.1463 15.1859 20.2171 14.3223 20.4294C9.40424 21.6325 6.2375 26.5158 7.29308 31.3754C8.08477 34.914 10.3399 37.3203 13.8185 38.429C17.3211 39.5378 20.5358 38.8301 23.3427 36.5182C23.6545 36.2587 23.8944 35.7633 23.9664 35.3387C24.0864 34.6074 23.7505 34.0176 23.1028 33.6637C22.407 33.2627 21.7113 33.3571 21.0876 33.8289C20.2719 34.4422 19.4082 34.9376 18.4006 35.1971C15.3059 36.0228 11.8752 34.2299 10.9156 31.2103C9.95602 28.2143 11.6593 24.9824 14.8021 23.968C17.0572 23.2367 19.0964 23.7085 20.9676 25.1004C21.9272 25.8317 22.9588 25.7137 23.6066 24.888C24.2543 24.086 24.0624 23.048 23.1507 22.3167C21.3515 20.8541 19.2883 20.1228 16.9612 20.0048ZM28.5006 27.7661C27.2051 27.7661 26.0056 27.7425 24.7821 27.7661C23.8225 27.7897 23.1028 28.5918 23.1028 29.5118C23.1028 30.4318 23.8465 31.2103 24.7821 31.2339C25.6457 31.2575 26.5094 31.2575 27.3491 31.2575C27.7089 31.2575 28.0688 31.2575 28.4766 31.2575C28.4766 31.5642 28.4766 31.7765 28.4766 31.9652C28.4766 32.8852 28.4526 33.8053 28.4766 34.7253C28.5006 35.7633 29.1963 36.4946 30.1559 36.5418C31.2595 36.589 32.0512 35.8341 32.0752 34.6781C32.0992 33.5458 32.0752 32.437 32.0752 31.2339C32.3631 31.2339 32.555 31.2339 32.7709 31.2339C33.7785 31.2339 34.8101 31.2575 35.8177 31.2103C36.6094 31.1867 37.2091 30.6441 37.401 29.8892C37.593 29.1815 37.3291 28.3794 36.6813 28.0492C36.3215 27.8605 35.8657 27.7661 35.4578 27.7425C34.3543 27.6953 33.2507 27.7189 32.0752 27.7189C32.0752 27.4594 32.0752 27.2471 32.0752 27.0348C32.0752 26.0912 32.0992 25.1475 32.0752 24.2039C32.0512 23.048 31.1635 22.2931 30.036 22.4346C29.1243 22.529 28.5006 23.2839 28.5006 24.2983C28.4766 25.4306 28.5006 26.5394 28.5006 27.7661ZM43.9264 27.7425C42.7029 27.7425 41.5754 27.7425 40.4478 27.7425C39.2963 27.7425 38.5286 28.4502 38.5286 29.4646C38.5286 30.5026 39.2963 31.2103 40.4718 31.2339C41.4314 31.2339 42.391 31.2339 43.3507 31.2339C43.5426 31.2339 43.7105 31.2575 43.9264 31.2575C43.9264 32.5078 43.9024 33.6637 43.9264 34.8433C43.9504 35.8105 44.6941 36.5182 45.6537 36.5182C46.6373 36.5418 47.405 35.8577 47.477 34.8669C47.501 34.4894 47.501 34.0884 47.501 33.7109C47.501 32.8852 47.501 32.0832 47.501 31.2103C47.7889 31.2103 48.0048 31.2103 48.2207 31.2103C49.2043 31.2103 50.2119 31.2339 51.1955 31.1867C52.2031 31.1631 52.9228 30.3375 52.8748 29.3467C52.8269 28.403 52.1072 27.7189 51.1236 27.6953C49.948 27.6717 48.7485 27.6953 47.501 27.6953C47.501 26.5866 47.501 25.5722 47.501 24.5342C47.501 24.2039 47.501 23.8736 47.405 23.567C47.1651 22.7649 46.3735 22.3167 45.4858 22.411C44.6461 22.5054 43.9984 23.1895 43.9744 24.0388C43.9264 25.2891 43.9264 26.4686 43.9264 27.7425Z" fill="white"/>
</g>
<defs>
<clipPath id="clip0_1_50">
<rect width="60" height="59" fill="white"/>
</clipPath>
</defs>
</svg>
